<svg width="20" height="22" viewBox="0 0 20 22" fill="none" xmlns="http://www.w3.org/2000/svg">
<path d="M20 4.79875C19.2563 5.125 18.4637 5.34125 17.6375 5.44625C18.4875 4.93875 19.1363 4.14125 19.4412 3.18C18.6488 3.6525 17.7738 3.98625 16.8412 4.1725C16.0887 3.37125 15.0162 2.875 13.8462 2.875C11.5763 2.875 9.74875 4.7175 9.74875 6.97625C9.74875 7.30125 9.77625 7.61375 9.84375 7.91125C6.435 7.745 3.41875 6.11125 1.3925 3.6225C1.03875 4.23625 0.83125 4.93875 0.83125 5.695C0.83125 7.115 1.5625 8.37375 2.6525 9.1025C1.99375 9.09 1.3475 8.89875 0.8 8.5975C0.8 8.61 0.8 8.62625 0.8 8.6425C0.8 10.635 2.22125 12.29 4.085 12.6712C3.75125 12.7625 3.3875 12.8062 3.01 12.8062C2.7475 12.8062 2.4825 12.7913 2.23375 12.7362C2.765 14.36 4.2725 15.5538 6.065 15.5925C4.67 16.6838 2.89875 17.3412 0.98125 17.3412C0.645 17.3412 0.3225 17.3263 0 17.285C1.81625 18.4563 3.96875 19.125 6.29 19.125C13.835 19.125 17.96 12.875 17.96 7.4575C17.96 7.27625 17.9538 7.10125 17.945 6.9275C18.7588 6.35 19.4425 5.62875 20 4.79875Z" fill="#AFB1B8"/>
</svg>
